<?xml version="1.0" encoding="us-ascii" standalone="no"?><svg xmlns="http://www.w3.org/2000/svg" xmlns:xlink="http://www.w3.org/1999/xlink" contentStyleType="text/css" height="642px" preserveAspectRatio="none" style="width:785px;height:642px;background:#FFFFFF;" version="1.1" viewBox="0 0 785 642" width="785px" zoomAndPan="magnify"><defs/><g><!--class s--><g id="elem_s"><rect codeLine="7" fill="#F1F1F1" height="206.4844" id="s" rx="2.5" ry="2.5" style="stroke:#181818;stroke-width:0.5;" width="285" x="231" y="183"/><ellipse cx="344.25" cy="199" fill="#ADD1B2" rx="11" ry="11" style="stroke:#181818;stroke-width:1.0;"/><path d="M343.1094,199.7969 L343.1094,202.2969 L347.4375,202.2969 L347.4375,201.375 Q347.4375,200.7656 347.6719,200.5 Q347.9219,200.2344 348.2969,200.2344 Q348.6719,200.2344 348.9063,200.5 Q349.1406,200.7656 349.1406,201.375 L349.1406,204 L341.1406,204 Q340.5156,204 340.25,203.7656 Q340,203.5313 340,203.1406 Q340,202.7656 340.2656,202.5313 Q340.5313,202.2969 341.1406,202.2969 L341.4063,202.2969 L341.4063,195.6406 L341.1406,195.6406 Q340.5156,195.6406 340.25,195.4063 Q340,195.1719 340,194.7813 Q340,194.4063 340.25,194.1719 Q340.5156,193.9375 341.1406,193.9375 L348.7656,193.9375 L348.7656,196.5313 Q348.7656,197.1406 348.5313,197.4063 Q348.3125,197.6563 347.9219,197.6563 Q347.5469,197.6563 347.3125,197.4063 Q347.0781,197.1406 347.0781,196.5313 L347.0781,195.6406 L343.1094,195.6406 L343.1094,198.0938 L344.5938,198.0938 Q344.5938,197.4375 344.7188,197.25 Q344.9844,196.8438 345.4531,196.8438 Q345.8281,196.8438 346.0625,197.1094 Q346.2969,197.3594 346.2969,197.9688 L346.2969,199.9375 Q346.2969,200.4844 346.1719,200.6719 Q345.9063,201.0625 345.4531,201.0625 Q344.9844,201.0625 344.7188,200.6563 Q344.5938,200.4688 344.5938,199.7969 L343.1094,199.7969 Z " fill="#000000"/><text fill="#000000" font-family="sans-serif" font-size="14" lengthAdjust="spacing" textLength="50" x="364.75" y="204.7285">Session</text><line style="stroke:#181818;stroke-width:0.5;" x1="232" x2="515" y1="215" y2="215"/><ellipse cx="242" cy="229.3047" fill="#000000" rx="3" ry="3" style="stroke:#000000;stroke-width:1.0;"/><text fill="#000000" font-family="sans-serif" font-size="14" lengthAdjust="spacing" textLength="193" x="251" y="233.5332">sessionId : String &#171;generated&#187;</text><line style="stroke:#181818;stroke-width:1.0;" x1="232" x2="515" y1="240.6094" y2="240.6094"/><ellipse cx="242" cy="254.9141" fill="#000000" rx="3" ry="3" style="stroke:#000000;stroke-width:1.0;"/><text fill="#000000" font-family="sans-serif" font-size="14" lengthAdjust="spacing" textLength="118" x="251" y="259.1426">timestamp : Instant</text><text fill="#000000" font-family="sans-serif" font-size="14" lengthAdjust="spacing" textLength="129" x="251" y="276.752">userData : UserData</text><text fill="#000000" font-family="sans-serif" font-size="14" lengthAdjust="spacing" textLength="195" x="251" y="294.3613">jobDescription : JobDescription</text><text fill="#000000" font-family="sans-serif" font-size="14" lengthAdjust="spacing" textLength="157" x="251" y="311.9707">files : List&lt;FileMetadata&gt;</text><text fill="#000000" font-family="sans-serif" font-size="14" lengthAdjust="spacing" textLength="204" x="251" y="329.5801">certifications : List&lt;Certification&gt;</text><text fill="#000000" font-family="sans-serif" font-size="14" lengthAdjust="spacing" textLength="182" x="251" y="347.1895">educations : List&lt;Education&gt;</text><text fill="#000000" font-family="sans-serif" font-size="14" lengthAdjust="spacing" textLength="188" x="251" y="364.7988">otherFields : List&lt;OtherField&gt;</text><text fill="#000000" font-family="sans-serif" font-size="14" lengthAdjust="spacing" textLength="259" x="251" y="382.4082">workExperiences : List&lt;WorkExperience&gt;</text></g><!--class c--><g id="elem_c"><rect codeLine="22" fill="#F1F1F1" height="100.8281" id="c" rx="2.5" ry="2.5" style="stroke:#181818;stroke-width:0.5;" width="149" x="523" y="7"/><ellipse cx="556.9" cy="23" fill="#ADD1B2" rx="11" ry="11" style="stroke:#181818;stroke-width:1.0;"/><path d="M555.7594,23.7969 L555.7594,26.2969 L560.0875,26.2969 L560.0875,25.375 Q560.0875,24.7656 560.3219,24.5 Q560.5719,24.2344 560.9469,24.2344 Q561.3219,24.2344 561.5563,24.5 Q561.7906,24.7656 561.7906,25.375 L561.7906,28 L553.7906,28 Q553.1656,28 552.9,27.7656 Q552.65,27.5313 552.65,27.1406 Q552.65,26.7656 552.9156,26.5313 Q553.1813,26.2969 553.7906,26.2969 L554.0563,26.2969 L554.0563,19.6406 L553.7906,19.6406 Q553.1656,19.6406 552.9,19.4063 Q552.65,19.1719 552.65,18.7813 Q552.65,18.4063 552.9,18.1719 Q553.1656,17.9375 553.7906,17.9375 L561.4156,17.9375 L561.4156,20.5313 Q561.4156,21.1406 561.1813,21.4063 Q560.9625,21.6563 560.5719,21.6563 Q560.1969,21.6563 559.9625,21.4063 Q559.7281,21.1406 559.7281,20.5313 L559.7281,19.6406 L555.7594,19.6406 L555.7594,22.0938 L557.2438,22.0938 Q557.2438,21.4375 557.3688,21.25 Q557.6344,20.8438 558.1031,20.8438 Q558.4781,20.8438 558.7125,21.1094 Q558.9469,21.3594 558.9469,21.9688 L558.9469,23.9375 Q558.9469,24.4844 558.8219,24.6719 Q558.5563,25.0625 558.1031,25.0625 Q557.6344,25.0625 557.3688,24.6563 Q557.2438,24.4688 557.2438,23.7969 L555.7594,23.7969 Z " fill="#000000"/><text fill="#000000" font-family="sans-serif" font-size="14" lengthAdjust="spacing" textLength="75" x="575.1" y="28.7285">Certification</text><line style="stroke:#181818;stroke-width:0.5;" x1="524" x2="671" y1="39" y2="39"/><ellipse cx="534" cy="53.3047" fill="#000000" rx="3" ry="3" style="stroke:#000000;stroke-width:1.0;"/><text fill="#000000" font-family="sans-serif" font-size="14" lengthAdjust="spacing" textLength="123" x="543" y="57.5332">id : int &#171;generated&#187;</text><line style="stroke:#181818;stroke-width:1.0;" x1="524" x2="671" y1="64.6094" y2="64.6094"/><ellipse cx="534" cy="78.9141" fill="#000000" rx="3" ry="3" style="stroke:#000000;stroke-width:1.0;"/><text fill="#000000" font-family="sans-serif" font-size="14" lengthAdjust="spacing" textLength="110" x="543" y="83.1426">session : Session</text><text fill="#000000" font-family="sans-serif" font-size="14" lengthAdjust="spacing" textLength="96" x="543" y="100.752">content : String</text></g><!--class e--><g id="elem_e"><rect codeLine="30" fill="#F1F1F1" height="100.8281" id="e" rx="2.5" ry="2.5" style="stroke:#181818;stroke-width:0.5;" width="149" x="299" y="7"/><ellipse cx="338.3" cy="23" fill="#ADD1B2" rx="11" ry="11" style="stroke:#181818;stroke-width:1.0;"/><path d="M337.1594,23.7969 L337.1594,26.2969 L341.4875,26.2969 L341.4875,25.375 Q341.4875,24.7656 341.7219,24.5 Q341.9719,24.2344 342.3469,24.2344 Q342.7219,24.2344 342.9563,24.5 Q343.1906,24.7656 343.1906,25.375 L343.1906,28 L335.1906,28 Q334.5656,28 334.3,27.7656 Q334.05,27.5313 334.05,27.1406 Q334.05,26.7656 334.3156,26.5313 Q334.5813,26.2969 335.1906,26.2969 L335.4563,26.2969 L335.4563,19.6406 L335.1906,19.6406 Q334.5656,19.6406 334.3,19.4063 Q334.05,19.1719 334.05,18.7813 Q334.05,18.4063 334.3,18.1719 Q334.5656,17.9375 335.1906,17.9375 L342.8156,17.9375 L342.8156,20.5313 Q342.8156,21.1406 342.5813,21.4063 Q342.3625,21.6563 341.9719,21.6563 Q341.5969,21.6563 341.3625,21.4063 Q341.1281,21.1406 341.1281,20.5313 L341.1281,19.6406 L337.1594,19.6406 L337.1594,22.0938 L338.6438,22.0938 Q338.6438,21.4375 338.7688,21.25 Q339.0344,20.8438 339.5031,20.8438 Q339.8781,20.8438 340.1125,21.1094 Q340.3469,21.3594 340.3469,21.9688 L340.3469,23.9375 Q340.3469,24.4844 340.2219,24.6719 Q339.9563,25.0625 339.5031,25.0625 Q339.0344,25.0625 338.7688,24.6563 Q338.6438,24.4688 338.6438,23.7969 L337.1594,23.7969 Z " fill="#000000"/><text fill="#000000" font-family="sans-serif" font-size="14" lengthAdjust="spacing" textLength="63" x="357.7" y="28.7285">Education</text><line style="stroke:#181818;stroke-width:0.5;" x1="300" x2="447" y1="39" y2="39"/><ellipse cx="310" cy="53.3047" fill="#000000" rx="3" ry="3" style="stroke:#000000;stroke-width:1.0;"/><text fill="#000000" font-family="sans-serif" font-size="14" lengthAdjust="spacing" textLength="123" x="319" y="57.5332">id : int &#171;generated&#187;</text><line style="stroke:#181818;stroke-width:1.0;" x1="300" x2="447" y1="64.6094" y2="64.6094"/><ellipse cx="310" cy="78.9141" fill="#000000" rx="3" ry="3" style="stroke:#000000;stroke-width:1.0;"/><text fill="#000000" font-family="sans-serif" font-size="14" lengthAdjust="spacing" textLength="110" x="319" y="83.1426">session : Session</text><text fill="#000000" font-family="sans-serif" font-size="14" lengthAdjust="spacing" textLength="96" x="319" y="100.752">content : String</text></g><!--class of--><g id="elem_of"><rect codeLine="38" fill="#F1F1F1" height="100.8281" id="of" rx="2.5" ry="2.5" style="stroke:#181818;stroke-width:0.5;" width="149" x="7" y="235.5"/><ellipse cx="44.5" cy="251.5" fill="#ADD1B2" rx="11" ry="11" style="stroke:#181818;stroke-width:1.0;"/><path d="M43.3594,252.2969 L43.3594,254.7969 L47.6875,254.7969 L47.6875,253.875 Q47.6875,253.2656 47.9219,253 Q48.1719,252.7344 48.5469,252.7344 Q48.9219,252.7344 49.1563,253 Q49.3906,253.2656 49.3906,253.875 L49.3906,256.5 L41.3906,256.5 Q40.7656,256.5 40.5,256.2656 Q40.25,256.0313 40.25,255.6406 Q40.25,255.2656 40.5156,255.0313 Q40.7813,254.7969 41.3906,254.7969 L41.6563,254.7969 L41.6563,248.1406 L41.3906,248.1406 Q40.7656,248.1406 40.5,247.9063 Q40.25,247.6719 40.25,247.2813 Q40.25,246.9063 40.5,246.6719 Q40.7656,246.4375 41.3906,246.4375 L49.0156,246.4375 L49.0156,249.0313 Q49.0156,249.6406 48.7813,249.9063 Q48.5625,250.1563 48.1719,250.1563 Q47.7969,250.1563 47.5625,249.9063 Q47.3281,249.6406 47.3281,249.0313 L47.3281,248.1406 L43.3594,248.1406 L43.3594,250.5938 L44.8438,250.5938 Q44.8438,249.9375 44.9688,249.75 Q45.2344,249.3438 45.7031,249.3438 Q46.0781,249.3438 46.3125,249.6094 Q46.5469,249.8594 46.5469,250.4688 L46.5469,252.4375 Q46.5469,252.9844 46.4219,253.1719 Q46.1563,253.5625 45.7031,253.5625 Q45.2344,253.5625 44.9688,253.1563 Q44.8438,252.9688 44.8438,252.2969 L43.3594,252.2969 Z " fill="#000000"/><text fill="#000000" font-family="sans-serif" font-size="14" lengthAdjust="spacing" textLength="67" x="63.5" y="257.2285">OtherField</text><line style="stroke:#181818;stroke-width:0.5;" x1="8" x2="155" y1="267.5" y2="267.5"/><ellipse cx="18" cy="281.8047" fill="#000000" rx="3" ry="3" style="stroke:#000000;stroke-width:1.0;"/><text fill="#000000" font-family="sans-serif" font-size="14" lengthAdjust="spacing" textLength="123" x="27" y="286.0332">id : int &#171;generated&#187;</text><line style="stroke:#181818;stroke-width:1.0;" x1="8" x2="155" y1="293.1094" y2="293.1094"/><ellipse cx="18" cy="307.4141" fill="#000000" rx="3" ry="3" style="stroke:#000000;stroke-width:1.0;"/><text fill="#000000" font-family="sans-serif" font-size="14" lengthAdjust="spacing" textLength="110" x="27" y="311.6426">session : Session</text><text fill="#000000" font-family="sans-serif" font-size="14" lengthAdjust="spacing" textLength="96" x="27" y="329.252">content : String</text></g><!--class we--><g id="elem_we"><rect codeLine="46" fill="#F1F1F1" height="100.8281" id="we" rx="2.5" ry="2.5" style="stroke:#181818;stroke-width:0.5;" width="149" x="75" y="7"/><ellipse cx="96.3" cy="23" fill="#ADD1B2" rx="11" ry="11" style="stroke:#181818;stroke-width:1.0;"/><path d="M95.1594,23.7969 L95.1594,26.2969 L99.4875,26.2969 L99.4875,25.375 Q99.4875,24.7656 99.7219,24.5 Q99.9719,24.2344 100.3469,24.2344 Q100.7219,24.2344 100.9563,24.5 Q101.1906,24.7656 101.1906,25.375 L101.1906,28 L93.1906,28 Q92.5656,28 92.3,27.7656 Q92.05,27.5313 92.05,27.1406 Q92.05,26.7656 92.3156,26.5313 Q92.5813,26.2969 93.1906,26.2969 L93.4563,26.2969 L93.4563,19.6406 L93.1906,19.6406 Q92.5656,19.6406 92.3,19.4063 Q92.05,19.1719 92.05,18.7813 Q92.05,18.4063 92.3,18.1719 Q92.5656,17.9375 93.1906,17.9375 L100.8156,17.9375 L100.8156,20.5313 Q100.8156,21.1406 100.5813,21.4063 Q100.3625,21.6563 99.9719,21.6563 Q99.5969,21.6563 99.3625,21.4063 Q99.1281,21.1406 99.1281,20.5313 L99.1281,19.6406 L95.1594,19.6406 L95.1594,22.0938 L96.6438,22.0938 Q96.6438,21.4375 96.7688,21.25 Q97.0344,20.8438 97.5031,20.8438 Q97.8781,20.8438 98.1125,21.1094 Q98.3469,21.3594 98.3469,21.9688 L98.3469,23.9375 Q98.3469,24.4844 98.2219,24.6719 Q97.9563,25.0625 97.5031,25.0625 Q97.0344,25.0625 96.7688,24.6563 Q96.6438,24.4688 96.6438,23.7969 L95.1594,23.7969 Z " fill="#000000"/><text fill="#000000" font-family="sans-serif" font-size="14" lengthAdjust="spacing" textLength="103" x="111.7" y="28.7285">WorkExperience</text><line style="stroke:#181818;stroke-width:0.5;" x1="76" x2="223" y1="39" y2="39"/><ellipse cx="86" cy="53.3047" fill="#000000" rx="3" ry="3" style="stroke:#000000;stroke-width:1.0;"/><text fill="#000000" font-family="sans-serif" font-size="14" lengthAdjust="spacing" textLength="123" x="95" y="57.5332">id : int &#171;generated&#187;</text><line style="stroke:#181818;stroke-width:1.0;" x1="76" x2="223" y1="64.6094" y2="64.6094"/><ellipse cx="86" cy="78.9141" fill="#000000" rx="3" ry="3" style="stroke:#000000;stroke-width:1.0;"/><text fill="#000000" font-family="sans-serif" font-size="14" lengthAdjust="spacing" textLength="110" x="95" y="83.1426">session : Session</text><text fill="#000000" font-family="sans-serif" font-size="14" lengthAdjust="spacing" textLength="96" x="95" y="100.752">content : String</text></g><!--class jd--><g id="elem_jd"><rect codeLine="54" fill="#F1F1F1" height="100.8281" id="jd" rx="2.5" ry="2.5" style="stroke:#181818;stroke-width:0.5;" width="149" x="174" y="499"/><ellipse cx="199.8" cy="515" fill="#ADD1B2" rx="11" ry="11" style="stroke:#181818;stroke-width:1.0;"/><path d="M198.6594,515.7969 L198.6594,518.2969 L202.9875,518.2969 L202.9875,517.375 Q202.9875,516.7656 203.2219,516.5 Q203.4719,516.2344 203.8469,516.2344 Q204.2219,516.2344 204.4563,516.5 Q204.6906,516.7656 204.6906,517.375 L204.6906,520 L196.6906,520 Q196.0656,520 195.8,519.7656 Q195.55,519.5313 195.55,519.1406 Q195.55,518.7656 195.8156,518.5313 Q196.0813,518.2969 196.6906,518.2969 L196.9563,518.2969 L196.9563,511.6406 L196.6906,511.6406 Q196.0656,511.6406 195.8,511.4063 Q195.55,511.1719 195.55,510.7813 Q195.55,510.4063 195.8,510.1719 Q196.0656,509.9375 196.6906,509.9375 L204.3156,509.9375 L204.3156,512.5313 Q204.3156,513.1406 204.0813,513.4063 Q203.8625,513.6563 203.4719,513.6563 Q203.0969,513.6563 202.8625,513.4063 Q202.6281,513.1406 202.6281,512.5313 L202.6281,511.6406 L198.6594,511.6406 L198.6594,514.0938 L200.1438,514.0938 Q200.1438,513.4375 200.2688,513.25 Q200.5344,512.8438 201.0031,512.8438 Q201.3781,512.8438 201.6125,513.1094 Q201.8469,513.3594 201.8469,513.9688 L201.8469,515.9375 Q201.8469,516.4844 201.7219,516.6719 Q201.4563,517.0625 201.0031,517.0625 Q200.5344,517.0625 200.2688,516.6563 Q200.1438,516.4688 200.1438,515.7969 L198.6594,515.7969 Z " fill="#000000"/><text fill="#000000" font-family="sans-serif" font-size="14" lengthAdjust="spacing" textLength="93" x="216.2" y="520.7285">JobDescription</text><line style="stroke:#181818;stroke-width:0.5;" x1="175" x2="322" y1="531" y2="531"/><ellipse cx="185" cy="545.3047" fill="#000000" rx="3" ry="3" style="stroke:#000000;stroke-width:1.0;"/><text fill="#000000" font-family="sans-serif" font-size="14" lengthAdjust="spacing" textLength="123" x="194" y="549.5332">id : int &#171;generated&#187;</text><line style="stroke:#181818;stroke-width:1.0;" x1="175" x2="322" y1="556.6094" y2="556.6094"/><ellipse cx="185" cy="570.9141" fill="#000000" rx="3" ry="3" style="stroke:#000000;stroke-width:1.0;"/><text fill="#000000" font-family="sans-serif" font-size="14" lengthAdjust="spacing" textLength="110" x="194" y="575.1426">session : Session</text><text fill="#000000" font-family="sans-serif" font-size="14" lengthAdjust="spacing" textLength="96" x="194" y="592.752">content : String</text></g><!--class fm--><g id="elem_fm"><rect codeLine="61" fill="#F1F1F1" height="171.2656" id="fm" rx="2.5" ry="2.5" style="stroke:#181818;stroke-width:0.5;" width="202" x="398.5" y="464"/><ellipse cx="454.25" cy="480" fill="#ADD1B2" rx="11" ry="11" style="stroke:#181818;stroke-width:1.0;"/><path d="M453.1094,480.7969 L453.1094,483.2969 L457.4375,483.2969 L457.4375,482.375 Q457.4375,481.7656 457.6719,481.5 Q457.9219,481.2344 458.2969,481.2344 Q458.6719,481.2344 458.9063,481.5 Q459.1406,481.7656 459.1406,482.375 L459.1406,485 L451.1406,485 Q450.5156,485 450.25,484.7656 Q450,484.5313 450,484.1406 Q450,483.7656 450.2656,483.5313 Q450.5313,483.2969 451.1406,483.2969 L451.4063,483.2969 L451.4063,476.6406 L451.1406,476.6406 Q450.5156,476.6406 450.25,476.4063 Q450,476.1719 450,475.7813 Q450,475.4063 450.25,475.1719 Q450.5156,474.9375 451.1406,474.9375 L458.7656,474.9375 L458.7656,477.5313 Q458.7656,478.1406 458.5313,478.4063 Q458.3125,478.6563 457.9219,478.6563 Q457.5469,478.6563 457.3125,478.4063 Q457.0781,478.1406 457.0781,477.5313 L457.0781,476.6406 L453.1094,476.6406 L453.1094,479.0938 L454.5938,479.0938 Q454.5938,478.4375 454.7188,478.25 Q454.9844,477.8438 455.4531,477.8438 Q455.8281,477.8438 456.0625,478.1094 Q456.2969,478.3594 456.2969,478.9688 L456.2969,480.9375 Q456.2969,481.4844 456.1719,481.6719 Q455.9063,482.0625 455.4531,482.0625 Q454.9844,482.0625 454.7188,481.6563 Q454.5938,481.4688 454.5938,480.7969 L453.1094,480.7969 Z " fill="#000000"/><text fill="#000000" font-family="sans-serif" font-size="14" lengthAdjust="spacing" textLength="82" x="474.75" y="485.7285">FileMetadata</text><line style="stroke:#181818;stroke-width:0.5;" x1="399.5" x2="599.5" y1="496" y2="496"/><ellipse cx="409.5" cy="510.3047" fill="#000000" rx="3" ry="3" style="stroke:#000000;stroke-width:1.0;"/><text fill="#000000" font-family="sans-serif" font-size="14" lengthAdjust="spacing" textLength="176" x="418.5" y="514.5332">storedName : String &#171;UUID&#187;</text><line style="stroke:#181818;stroke-width:1.0;" x1="399.5" x2="599.5" y1="521.6094" y2="521.6094"/><ellipse cx="409.5" cy="535.9141" fill="#000000" rx="3" ry="3" style="stroke:#000000;stroke-width:1.0;"/><text fill="#000000" font-family="sans-serif" font-size="14" lengthAdjust="spacing" textLength="110" x="418.5" y="540.1426">session : Session</text><ellipse cx="409.5" cy="553.5234" fill="#000000" rx="3" ry="3" style="stroke:#000000;stroke-width:1.0;"/><text fill="#000000" font-family="sans-serif" font-size="14" lengthAdjust="spacing" textLength="131" x="418.5" y="557.752">originalName : String</text><ellipse cx="409.5" cy="571.1328" fill="#000000" rx="3" ry="3" style="stroke:#000000;stroke-width:1.0;"/><text fill="#000000" font-family="sans-serif" font-size="14" lengthAdjust="spacing" textLength="118" x="418.5" y="575.3613">storedPath : String</text><ellipse cx="409.5" cy="588.7422" fill="#000000" rx="3" ry="3" style="stroke:#000000;stroke-width:1.0;"/><text fill="#000000" font-family="sans-serif" font-size="14" lengthAdjust="spacing" textLength="114" x="418.5" y="592.9707">mimeType : String</text><ellipse cx="409.5" cy="606.3516" fill="#000000" rx="3" ry="3" style="stroke:#000000;stroke-width:1.0;"/><text fill="#000000" font-family="sans-serif" font-size="14" lengthAdjust="spacing" textLength="118" x="418.5" y="610.5801">timestamp : Instant</text><ellipse cx="409.5" cy="623.9609" fill="#000000" rx="3" ry="3" style="stroke:#000000;stroke-width:1.0;"/><text fill="#000000" font-family="sans-serif" font-size="14" lengthAdjust="spacing" textLength="63" x="418.5" y="628.1895">size : long</text></g><!--class ud--><g id="elem_ud"><rect codeLine="73" fill="#F1F1F1" height="136.0469" id="ud" rx="2.5" ry="2.5" style="stroke:#181818;stroke-width:0.5;" width="187" x="591" y="218"/><ellipse cx="650.75" cy="234" fill="#ADD1B2" rx="11" ry="11" style="stroke:#181818;stroke-width:1.0;"/><path d="M649.6094,234.7969 L649.6094,237.2969 L653.9375,237.2969 L653.9375,236.375 Q653.9375,235.7656 654.1719,235.5 Q654.4219,235.2344 654.7969,235.2344 Q655.1719,235.2344 655.4063,235.5 Q655.6406,235.7656 655.6406,236.375 L655.6406,239 L647.6406,239 Q647.0156,239 646.75,238.7656 Q646.5,238.5313 646.5,238.1406 Q646.5,237.7656 646.7656,237.5313 Q647.0313,237.2969 647.6406,237.2969 L647.9063,237.2969 L647.9063,230.6406 L647.6406,230.6406 Q647.0156,230.6406 646.75,230.4063 Q646.5,230.1719 646.5,229.7813 Q646.5,229.4063 646.75,229.1719 Q647.0156,228.9375 647.6406,228.9375 L655.2656,228.9375 L655.2656,231.5313 Q655.2656,232.1406 655.0313,232.4063 Q654.8125,232.6563 654.4219,232.6563 Q654.0469,232.6563 653.8125,232.4063 Q653.5781,232.1406 653.5781,231.5313 L653.5781,230.6406 L649.6094,230.6406 L649.6094,233.0938 L651.0938,233.0938 Q651.0938,232.4375 651.2188,232.25 Q651.4844,231.8438 651.9531,231.8438 Q652.3281,231.8438 652.5625,232.1094 Q652.7969,232.3594 652.7969,232.9688 L652.7969,234.9375 Q652.7969,235.4844 652.6719,235.6719 Q652.4063,236.0625 651.9531,236.0625 Q651.4844,236.0625 651.2188,235.6563 Q651.0938,235.4688 651.0938,234.7969 L649.6094,234.7969 Z " fill="#000000"/><text fill="#000000" font-family="sans-serif" font-size="14" lengthAdjust="spacing" textLength="59" x="671.25" y="239.7285">UserData</text><line style="stroke:#181818;stroke-width:0.5;" x1="592" x2="777" y1="250" y2="250"/><ellipse cx="602" cy="264.3047" fill="#000000" rx="3" ry="3" style="stroke:#000000;stroke-width:1.0;"/><text fill="#000000" font-family="sans-serif" font-size="14" lengthAdjust="spacing" textLength="123" x="611" y="268.5332">id : int &#171;generated&#187;</text><line style="stroke:#181818;stroke-width:1.0;" x1="592" x2="777" y1="275.6094" y2="275.6094"/><ellipse cx="602" cy="289.9141" fill="#000000" rx="3" ry="3" style="stroke:#000000;stroke-width:1.0;"/><text fill="#000000" font-family="sans-serif" font-size="14" lengthAdjust="spacing" textLength="110" x="611" y="294.1426">session : Session</text><ellipse cx="602" cy="307.5234" fill="#000000" rx="3" ry="3" style="stroke:#000000;stroke-width:1.0;"/><text fill="#000000" font-family="sans-serif" font-size="14" lengthAdjust="spacing" textLength="84" x="611" y="311.752">name : String</text><ellipse cx="602" cy="325.1328" fill="#000000" rx="3" ry="3" style="stroke:#000000;stroke-width:1.0;"/><text fill="#000000" font-family="sans-serif" font-size="14" lengthAdjust="spacing" textLength="134" x="611" y="329.3613">emailAddress : String</text><text fill="#000000" font-family="sans-serif" font-size="14" lengthAdjust="spacing" textLength="161" x="611" y="346.9707">telephoneNumber : String</text></g><!--link s to ud--><g id="link_s_ud"><path codeLine="84" d="M524.26,309 C549.49,309 559.17,309 582.62,309 " fill="none" id="s-ud" style="stroke:#181818;stroke-width:1.0;"/><line style="stroke:#181818;stroke-width:1.0;" x1="520.26" x2="520.26" y1="313" y2="305"/><line style="stroke:#181818;stroke-width:1.0;" x1="523.26" x2="523.26" y1="313" y2="305"/><line style="stroke:#181818;stroke-width:1.0;" x1="524.26" x2="516.26" y1="309" y2="309"/><line style="stroke:#181818;stroke-width:1.0;" x1="586.62" x2="586.62" y1="305" y2="313"/><line style="stroke:#181818;stroke-width:1.0;" x1="583.62" x2="583.62" y1="305" y2="313"/><line style="stroke:#181818;stroke-width:1.0;" x1="582.62" x2="590.62" y1="309" y2="309"/></g><!--link ud to s--><!--link s to jd--><g id="link_s_jd"><path codeLine="85" d="M261.67,397.01 C261.67,434.68 261.67,459.65 261.67,490.77 " fill="none" id="s-jd" style="stroke:#181818;stroke-width:1.0;"/><line style="stroke:#181818;stroke-width:1.0;" x1="257.67" x2="265.67" y1="393.01" y2="393.01"/><line style="stroke:#181818;stroke-width:1.0;" x1="257.67" x2="265.67" y1="396.01" y2="396.01"/><line style="stroke:#181818;stroke-width:1.0;" x1="261.67" x2="261.67" y1="397.01" y2="389.01"/><line style="stroke:#181818;stroke-width:1.0;" x1="265.67" x2="257.67" y1="494.77" y2="494.77"/><line style="stroke:#181818;stroke-width:1.0;" x1="265.67" x2="257.67" y1="491.77" y2="491.77"/><line style="stroke:#181818;stroke-width:1.0;" x1="261.67" x2="261.67" y1="490.77" y2="498.77"/></g><!--link jd to s--><!--link s to fm--><g id="link_s_fm"><path codeLine="86" d="M476.83,407.01 C476.83,431.69 476.83,431.79 476.83,455.6 " fill="none" id="s-fm" style="stroke:#181818;stroke-width:1.0;"/><line style="stroke:#181818;stroke-width:1.0;" x1="476.83" x2="470.83" y1="397.01" y2="389.01"/><line style="stroke:#181818;stroke-width:1.0;" x1="476.83" x2="482.83" y1="397.01" y2="389.01"/><line style="stroke:#181818;stroke-width:1.0;" x1="476.83" x2="476.83" y1="397.01" y2="389.01"/><ellipse cx="476.83" cy="403.01" fill="none" rx="4" ry="4" style="stroke:#181818;stroke-width:1.0;"/><line style="stroke:#181818;stroke-width:1.0;" x1="480.83" x2="472.83" y1="459.6" y2="459.6"/><line style="stroke:#181818;stroke-width:1.0;" x1="480.83" x2="472.83" y1="456.6" y2="456.6"/><line style="stroke:#181818;stroke-width:1.0;" x1="476.83" x2="476.83" y1="455.6" y2="463.6"/></g><!--link fm to s--><!--link c to s--><g id="link_c_s"><path codeLine="87" d="M545.67,116.31 C545.67,155.48 545.67,195 545.67,195 C545.67,195 551.7,195 534.07,195 " fill="none" id="c-s" style="stroke:#181818;stroke-width:1.0;"/><line style="stroke:#181818;stroke-width:1.0;" x1="541.67" x2="549.67" y1="112.31" y2="112.31"/><line style="stroke:#181818;stroke-width:1.0;" x1="541.67" x2="549.67" y1="115.31" y2="115.31"/><line style="stroke:#181818;stroke-width:1.0;" x1="545.67" x2="545.67" y1="116.31" y2="108.31"/><line style="stroke:#181818;stroke-width:1.0;" x1="524.07" x2="516.07" y1="195" y2="201"/><line style="stroke:#181818;stroke-width:1.0;" x1="524.07" x2="516.07" y1="195" y2="189"/><line style="stroke:#181818;stroke-width:1.0;" x1="524.07" x2="516.07" y1="195" y2="195"/><ellipse cx="530.07" cy="195" fill="none" rx="4" ry="4" style="stroke:#181818;stroke-width:1.0;"/></g><!--link c to s--><!--link e to s--><g id="link_e_s"><path codeLine="88" d="M398.33,116.21 C398.33,138.3 398.33,139.04 398.33,164.99 " fill="none" id="e-s" style="stroke:#181818;stroke-width:1.0;"/><line style="stroke:#181818;stroke-width:1.0;" x1="394.33" x2="402.33" y1="112.21" y2="112.21"/><line style="stroke:#181818;stroke-width:1.0;" x1="394.33" x2="402.33" y1="115.21" y2="115.21"/><line style="stroke:#181818;stroke-width:1.0;" x1="398.33" x2="398.33" y1="116.21" y2="108.21"/><line style="stroke:#181818;stroke-width:1.0;" x1="398.33" x2="404.33" y1="174.99" y2="182.99"/><line style="stroke:#181818;stroke-width:1.0;" x1="398.33" x2="392.33" y1="174.99" y2="182.99"/><line style="stroke:#181818;stroke-width:1.0;" x1="398.33" x2="398.33" y1="174.99" y2="182.99"/><ellipse cx="398.33" cy="168.99" fill="none" rx="4" ry="4" style="stroke:#181818;stroke-width:1.0;"/></g><!--link e to s--><!--link of to s--><g id="link_of_s"><path codeLine="89" d="M164.32,303 C187.13,303 187.01,303 212.76,303 " fill="none" id="of-s" style="stroke:#181818;stroke-width:1.0;"/><line style="stroke:#181818;stroke-width:1.0;" x1="160.32" x2="160.32" y1="307" y2="299"/><line style="stroke:#181818;stroke-width:1.0;" x1="163.32" x2="163.32" y1="307" y2="299"/><line style="stroke:#181818;stroke-width:1.0;" x1="164.32" x2="156.32" y1="303" y2="303"/><line style="stroke:#181818;stroke-width:1.0;" x1="222.76" x2="230.76" y1="303" y2="297"/><line style="stroke:#181818;stroke-width:1.0;" x1="222.76" x2="230.76" y1="303" y2="309"/><line style="stroke:#181818;stroke-width:1.0;" x1="222.76" x2="230.76" y1="303" y2="303"/><ellipse cx="216.76" cy="303" fill="none" rx="4" ry="4" style="stroke:#181818;stroke-width:1.0;"/></g><!--link of to s--><!--link we to s--><g id="link_we_s"><path codeLine="90" d="M190.67,116.28 C190.67,163.3 190.67,218 190.67,218 C190.67,218 189.42,218 212.79,218 " fill="none" id="we-s" style="stroke:#181818;stroke-width:1.0;"/><line style="stroke:#181818;stroke-width:1.0;" x1="186.67" x2="194.67" y1="112.28" y2="112.28"/><line style="stroke:#181818;stroke-width:1.0;" x1="186.67" x2="194.67" y1="115.28" y2="115.28"/><line style="stroke:#181818;stroke-width:1.0;" x1="190.67" x2="190.67" y1="116.28" y2="108.28"/><line style="stroke:#181818;stroke-width:1.0;" x1="222.79" x2="230.79" y1="218" y2="212"/><line style="stroke:#181818;stroke-width:1.0;" x1="222.79" x2="230.79" y1="218" y2="224"/><line style="stroke:#181818;stroke-width:1.0;" x1="222.79" x2="230.79" y1="218" y2="218"/><ellipse cx="216.79" cy="218" fill="none" rx="4" ry="4" style="stroke:#181818;stroke-width:1.0;"/></g><!--link we to s--><!--SRC=[jLJ1Yjim4BtxAzIz508kbAKKIWYKPXTIscrX6tfOUj1QutWIQsIaCUcssN-l92UE57PB3urFUcyUypHFab- -wAnSQIciP3JYzQlBoy9ja3fffHOj4l131y9ORanI8AF0GIVUlab8Ascp9miWHduG5xVW71gw4D89L_mkXFycRY0NIhmJjsoHLc8wNG61tmIesIogod8G2qODZgNkl7f1VaKSAxq3EvSiFRtSBoE_DlTpS9N5paz4llen8wAcnXQSBtr2nzDh3pu3I-Kx3DuLMCOQgv09ZReFAJi8GVKdegi3CmWCDs2l4LerAhwCr23P6hkv-jc1HQ3gkAll6Jqh7ejZgjbEOhRL8Lk18LKa_bka-mC8yG-hOMf3x1t6GmcM1yTnhEW6PtOxHXJjJ7rclpphwBazzupvhOoUQtKUpuDbUj6ZOQr7GyV6WhgH6j97kLmkvlzcE_7_25mXoJRhaNN_AhavhMZ_kh-5Nym9_zohzxtmLr2t9i_py0-8W_N_8yc9e2T60IsnVQ-KzSgynj12rnY2crxVWyrElN1YjojzGWsNkrtONoIKsLB0wu0VpOZzmKJSTm5LAO01j537Jlvj94L_Qukgl6jGAQ0VfIiW1TiCcJf5jKxHMgMepz0V]--></g></svg>